<svg xmlns="http://www.w3.org/2000/svg" width="26" height="25" viewBox="0 0 26 25">
  <g id="Mail" opacity="0.7">
    <rect id="Rectángulo_67" data-name="Rectángulo 67" width="26" height="25" fill="none"/>
    <path id="Trazado_19" data-name="Trazado 19" d="M256.979,94.185a3.006,3.006,0,0,0-.93-2.165,3.245,3.245,0,0,0-2.247-.9h-17.52a3.245,3.245,0,0,0-2.247.9,3.006,3.006,0,0,0-.93,2.165V106.8a3.006,3.006,0,0,0,.93,2.165,3.245,3.245,0,0,0,2.247.9H253.8a3.245,3.245,0,0,0,2.247-.9,3.006,3.006,0,0,0,.93-2.165Zm-1.972,0V106.8a1.14,1.14,0,0,1-.353.821,1.229,1.229,0,0,1-.852.34h-17.52a1.229,1.229,0,0,1-.852-.34,1.14,1.14,0,0,1-.353-.821V94.185a1.141,1.141,0,0,1,.353-.821,1.229,1.229,0,0,1,.852-.34H253.8a1.229,1.229,0,0,1,.852.34A1.14,1.14,0,0,1,255.007,94.185Zm-16.649,2.471v9.115a.987.987,0,0,1-1.972,0V95.215a.939.939,0,0,1,.444-.793,1.017,1.017,0,0,1,.931-.08l7.281,3.006,7.281-3.006a1.017,1.017,0,0,1,.931.08.939.939,0,0,1,.444.793v10.556a.987.987,0,0,1-1.972,0V96.656l-6.295,2.6a1.023,1.023,0,0,1-.778,0Z" transform="translate(-231.894 -87.826)" fill="#eee3cb" fill-rule="evenodd"/>
  </g>
</svg>
