<svg xmlns="http://www.w3.org/2000/svg" width="25" height="25" viewBox="0 0 25 25">
  <path id="Tel" d="M27.655,20.9l-2.232-2.232a3.573,3.573,0,0,0-5.011-.021,2.184,2.184,0,0,1-2.769.271c-.673-.449-2.1-1.685-2.1-1.685a25.981,25.981,0,0,1-2.105-2.509,2.213,2.213,0,0,1,.288-2.779,3.573,3.573,0,0,0-.031-5L11.465,4.715a3.566,3.566,0,0,0-5.034,0l-.642.643C2.441,8.707,2.691,15.747,9.658,22.71c4.2,4.2,8.429,5.961,11.858,5.961a7.61,7.61,0,0,0,5.5-2.091l.643-.643A3.565,3.565,0,0,0,27.655,20.9ZM26.22,24.5l-.643.643c-2.638,2.638-8.461,2.156-14.486-3.869S4.584,9.423,7.222,6.785l.638-.642a1.533,1.533,0,0,1,2.164,0l2.232,2.232a1.533,1.533,0,0,1,.021,2.141,4.242,4.242,0,0,0-.539,5.316,34.3,34.3,0,0,0,3.348,3.709s.861.685,1.434,1.067a4.24,4.24,0,0,0,5.308-.525,1.534,1.534,0,0,1,2.149.013l2.232,2.232A1.532,1.532,0,0,1,26.22,24.5Z" transform="translate(-3.698 -3.675)" fill="#eee3cb" opacity="0.7"/>
</svg>
