<svg xmlns="http://www.w3.org/2000/svg" width="29.822" height="30" viewBox="0 0 29.822 30">
  <path id="WSP" d="M23.873,19.99c-.3-.15-2.247-1.049-2.547-1.2a.706.706,0,0,0-.9.15c-.3.3-.9,1.2-1.2,1.5-.15.3-.449.3-.749.15a12.247,12.247,0,0,1-3-1.8,17.245,17.245,0,0,1-2.1-2.547.659.659,0,0,1,.15-.749c.15-.15.3-.449.6-.6a1.136,1.136,0,0,0,.3-.6.456.456,0,0,0,0-.6,26.63,26.63,0,0,1-1.2-2.7c-.15-1.049-.449-1.049-.749-1.049h-.749a1.709,1.709,0,0,0-.9.449,4.312,4.312,0,0,0-1.348,3.146,7.848,7.848,0,0,0,1.5,3.9c1.648,2.4,6.292,5.543,6.292,5.543a13.972,13.972,0,0,0,2.1.749,4.279,4.279,0,0,0,2.4.15,3.881,3.881,0,0,0,2.547-1.8,2.505,2.505,0,0,0,.15-1.8l-.6-.3M27.618,6.357A14.933,14.933,0,0,0,4.1,24.335L2,31.975l7.94-2.1A14.8,14.8,0,0,0,31.813,16.844,14.592,14.592,0,0,0,27.618,6.357M23.573,27.331a12.573,12.573,0,0,1-6.592,1.948,13.138,13.138,0,0,1-6.292-1.648l-.449-.3L5.6,28.529l1.2-4.494-.3-.449A12.579,12.579,0,0,1,10.539,6.357a12.187,12.187,0,0,1,16.929,3.9,12.362,12.362,0,0,1-3.9,17.079" transform="translate(-2 -1.975)" fill="#eee3cb" opacity="0.7"/>
</svg>
